<?xml version="1.0" encoding="UTF-8" ?>
<!DOCTYPE svg PUBLIC "-//W3C//DTD SVG 1.1//EN" "http://www.w3.org/Graphics/SVG/1.1/DTD/svg11.dtd">
<svg width="800pt" height="600pt" viewBox="0 0 800 600" version="1.1" xmlns="http://www.w3.org/2000/svg">
<g id="#ffffffff">
<path fill="#ffffff" opacity="1.00" d=" M 0.00 0.00 L 800.00 0.00 L 800.00 600.00 L 0.00 600.00 L 0.00 0.00 M 341.74 119.95 C 341.85 126.52 343.62 132.94 346.42 138.86 C 332.50 146.42 320.35 157.11 310.52 169.49 C 303.40 177.61 298.10 187.16 293.81 197.02 C 289.59 206.91 289.87 217.83 289.24 228.35 C 287.36 231.03 284.67 233.07 282.07 235.03 C 277.22 239.47 272.85 244.42 268.09 248.93 C 260.24 250.54 252.74 254.32 247.37 260.38 C 243.70 263.86 241.13 268.44 237.02 271.43 C 232.53 271.88 227.28 270.11 223.50 273.38 C 221.27 274.97 220.71 278.03 221.48 280.53 C 224.12 284.74 229.31 286.25 233.97 286.85 C 240.79 288.00 247.55 285.81 253.69 283.03 C 249.07 300.27 247.83 318.22 248.43 336.01 C 242.49 344.38 241.76 355.31 235.48 363.48 C 231.45 368.57 223.91 368.78 219.97 373.98 C 217.50 376.92 218.09 381.57 220.87 384.11 C 224.10 387.88 229.22 389.19 234.04 388.83 C 242.89 389.09 250.27 383.12 255.97 376.97 C 262.21 394.04 269.92 410.86 281.60 424.96 C 278.49 431.17 276.01 437.66 273.00 443.92 C 270.85 448.48 268.59 453.10 267.73 458.11 C 266.99 462.29 270.98 465.94 275.02 465.73 C 279.53 466.17 283.39 463.39 286.64 460.62 C 292.16 455.93 295.73 449.52 299.60 443.52 C 321.72 463.38 350.57 475.58 380.23 477.58 C 397.78 478.39 415.63 477.61 432.55 472.51 C 449.71 466.82 466.16 458.63 480.41 447.45 C 483.36 451.53 485.62 456.17 489.44 459.57 C 493.12 463.11 497.41 467.47 502.98 466.84 C 507.76 466.83 511.46 461.49 510.38 456.96 C 508.87 450.18 505.62 443.93 504.03 437.17 C 503.28 433.75 502.25 430.40 501.49 426.99 C 502.31 424.57 504.13 422.66 505.63 420.64 C 516.13 407.87 522.73 392.45 527.99 376.92 C 534.14 382.70 541.11 388.85 549.97 389.33 C 555.36 390.04 560.97 387.63 564.10 383.18 C 565.98 380.55 565.88 376.64 563.67 374.24 C 559.89 369.98 553.46 369.63 549.68 365.35 C 542.16 357.38 542.86 345.17 535.72 336.94 C 537.23 318.32 535.50 299.37 530.04 281.44 C 538.75 287.20 550.87 288.57 559.99 283.02 C 564.57 280.11 562.71 272.76 557.77 271.49 C 553.93 270.76 549.91 272.12 546.15 271.20 C 543.04 268.45 541.12 264.70 538.40 261.61 C 532.72 255.25 525.15 250.23 516.53 249.27 C 513.25 247.01 511.47 243.15 508.25 240.76 C 503.94 237.74 501.35 232.75 496.57 230.34 C 495.56 229.62 494.09 229.30 493.60 228.05 C 493.44 224.71 493.54 221.35 493.66 218.01 C 494.13 210.58 492.43 203.15 489.69 196.28 C 482.23 179.36 470.77 164.30 456.99 152.03 C 451.47 147.32 445.33 143.44 439.56 139.08 C 442.76 132.73 444.12 125.20 442.48 118.23 C 441.49 115.03 439.56 111.40 435.94 110.77 C 431.43 110.42 426.69 114.30 427.21 119.03 C 427.41 123.83 429.55 128.72 427.29 133.38 C 410.00 127.25 391.09 125.34 373.10 129.33 C 367.87 130.07 363.07 132.61 357.79 132.96 C 356.51 128.68 356.78 124.31 357.45 119.96 C 358.17 116.01 355.55 112.12 351.99 110.60 C 346.42 109.20 341.70 114.73 341.74 119.95 Z" />
</g>
<g id="#090806ff">
<path fill="#090806" opacity="1.00" d=" M 341.74 119.95 C 341.70 114.73 346.42 109.20 351.99 110.60 C 355.55 112.12 358.17 116.01 357.45 119.96 C 356.78 124.31 356.51 128.68 357.79 132.96 C 363.07 132.61 367.87 130.07 373.10 129.33 C 391.09 125.34 410.00 127.25 427.29 133.38 C 429.55 128.72 427.41 123.83 427.21 119.03 C 426.69 114.30 431.43 110.42 435.94 110.77 C 439.56 111.40 441.49 115.03 442.48 118.23 C 444.12 125.20 442.76 132.73 439.56 139.08 C 445.33 143.44 451.47 147.32 456.99 152.03 C 470.77 164.30 482.23 179.36 489.69 196.28 C 492.43 203.15 494.13 210.58 493.66 218.01 C 493.54 221.35 493.44 224.71 493.60 228.05 C 494.09 229.30 495.56 229.62 496.57 230.34 C 501.35 232.75 503.94 237.74 508.25 240.76 C 511.47 243.15 513.25 247.01 516.53 249.27 C 525.15 250.23 532.72 255.25 538.40 261.61 C 541.12 264.70 543.04 268.45 546.15 271.20 C 549.91 272.12 553.93 270.76 557.77 271.49 C 562.71 272.76 564.57 280.11 559.99 283.02 C 550.87 288.57 538.75 287.20 530.04 281.44 C 535.50 299.37 537.23 318.32 535.72 336.94 C 542.86 345.17 542.16 357.38 549.68 365.35 C 553.46 369.63 559.89 369.98 563.67 374.24 C 565.88 376.64 565.98 380.55 564.10 383.18 C 560.97 387.63 555.36 390.04 549.97 389.33 C 541.11 388.85 534.14 382.70 527.99 376.92 C 522.73 392.45 516.13 407.87 505.63 420.64 C 504.13 422.66 502.31 424.57 501.49 426.99 C 502.25 430.40 503.28 433.75 504.03 437.17 C 505.62 443.93 508.87 450.18 510.38 456.96 C 511.46 461.49 507.76 466.83 502.98 466.84 C 497.41 467.47 493.12 463.11 489.44 459.57 C 485.62 456.17 483.36 451.53 480.41 447.45 C 466.16 458.63 449.71 466.82 432.55 472.51 C 415.63 477.61 397.78 478.39 380.23 477.58 C 350.57 475.58 321.72 463.38 299.60 443.52 C 295.73 449.52 292.16 455.93 286.64 460.62 C 283.39 463.39 279.53 466.17 275.02 465.73 C 270.98 465.94 266.99 462.29 267.73 458.11 C 268.59 453.10 270.85 448.48 273.00 443.92 C 276.01 437.66 278.49 431.17 281.60 424.96 C 269.92 410.86 262.21 394.04 255.97 376.97 C 250.27 383.12 242.89 389.09 234.04 388.83 C 229.22 389.19 224.10 387.88 220.87 384.11 C 218.09 381.57 217.50 376.92 219.97 373.98 C 223.91 368.78 231.45 368.57 235.48 363.48 C 241.76 355.31 242.49 344.38 248.43 336.01 C 247.83 318.22 249.07 300.27 253.69 283.03 C 247.55 285.81 240.79 288.00 233.97 286.85 C 229.31 286.25 224.12 284.74 221.48 280.53 C 220.71 278.03 221.27 274.97 223.50 273.38 C 227.28 270.11 232.53 271.88 237.02 271.43 C 241.13 268.44 243.70 263.86 247.37 260.38 C 252.74 254.32 260.24 250.54 268.09 248.93 C 272.85 244.42 277.22 239.47 282.07 235.03 C 284.67 233.07 287.36 231.03 289.24 228.35 C 289.87 217.83 289.59 206.91 293.81 197.02 C 298.10 187.16 303.40 177.61 310.52 169.49 C 320.35 157.11 332.50 146.42 346.42 138.86 C 343.62 132.94 341.85 126.52 341.74 119.95 M 348.17 114.17 C 345.46 116.11 344.99 119.65 345.39 122.73 C 345.81 126.61 346.27 130.59 347.81 134.21 C 348.78 136.81 351.94 135.97 354.08 136.18 C 353.59 130.13 353.59 124.08 353.88 118.04 C 354.45 115.10 350.63 111.69 348.17 114.17 M 433.40 114.24 C 431.16 115.17 430.38 117.73 430.87 119.95 C 431.55 124.69 431.72 129.46 431.68 134.23 C 431.41 136.42 434.74 137.80 436.27 136.33 C 438.55 134.25 438.89 130.92 439.20 128.03 C 439.39 124.00 439.46 119.78 438.06 115.94 C 437.48 114.02 435.07 113.32 433.40 114.24 M 366.63 135.62 C 358.52 138.46 350.20 141.15 343.05 146.07 C 335.07 151.47 326.92 157.05 320.91 164.69 C 321.49 165.02 322.66 165.70 323.25 166.03 C 319.00 171.00 316.08 177.42 316.50 184.06 C 316.68 188.71 319.74 193.30 324.37 194.49 C 329.75 196.56 335.38 193.81 339.76 190.75 C 345.34 186.93 348.77 180.79 350.80 174.49 C 346.34 174.53 341.23 175.63 337.46 172.52 C 333.56 170.08 332.30 165.29 332.73 160.94 C 334.56 158.43 336.11 155.55 338.75 153.76 C 343.55 150.55 350.04 150.48 355.21 152.86 C 359.59 154.77 361.67 160.44 359.81 164.79 C 357.97 168.62 354.79 171.78 354.00 176.10 C 351.77 186.20 343.53 194.70 333.64 197.54 C 326.17 199.73 316.94 196.69 313.81 189.21 C 311.51 182.31 314.91 175.41 316.92 168.90 C 313.83 171.55 311.33 174.78 309.19 178.21 C 303.18 186.96 297.91 196.45 295.61 206.91 C 295.53 212.61 294.67 218.37 295.69 224.04 C 296.12 225.57 296.07 227.93 298.18 228.04 C 300.84 228.22 303.48 227.71 306.12 227.49 C 314.12 226.65 322.07 228.35 330.03 228.91 C 338.72 229.48 347.31 231.04 356.02 231.35 C 372.07 232.25 388.18 234.12 404.26 232.52 C 425.92 231.43 447.54 229.60 469.11 227.38 C 475.08 226.89 480.98 228.32 486.95 228.08 C 488.73 220.90 488.69 213.43 487.78 206.12 C 483.52 192.49 476.76 179.47 467.02 168.93 C 468.37 175.71 470.48 182.77 468.67 189.66 C 466.66 195.05 460.56 197.98 455.04 197.83 C 442.76 197.46 431.95 187.61 429.18 175.86 C 428.50 172.37 426.12 169.66 424.54 166.58 C 422.26 160.95 425.74 154.33 431.40 152.46 C 438.26 149.46 446.71 152.41 450.39 158.90 C 450.71 163.83 450.49 169.92 446.03 173.06 C 441.98 175.78 436.81 175.39 432.23 174.53 C 434.40 181.28 438.22 187.88 444.49 191.57 C 449.04 194.35 455.11 196.76 460.21 193.99 C 464.59 191.86 467.14 186.78 466.46 181.99 C 465.63 175.28 463.81 168.17 458.59 163.47 C 458.59 162.03 458.96 160.31 457.72 159.24 C 450.25 151.77 441.19 146.12 432.00 141.02 C 421.07 135.95 409.08 132.87 396.99 132.76 C 386.84 132.65 376.38 132.30 366.63 135.62 M 343.34 155.23 C 341.69 155.77 340.11 156.59 338.78 157.71 C 336.07 159.83 336.65 164.09 338.30 166.70 C 343.18 171.38 353.43 169.32 354.28 161.93 C 355.27 156.09 347.99 153.06 343.34 155.23 M 434.34 155.32 C 430.20 156.40 427.70 161.49 429.59 165.38 C 431.72 170.10 438.10 171.49 442.58 169.60 C 446.94 167.64 448.49 161.77 446.23 157.72 C 443.37 154.42 438.27 154.32 434.34 155.32 M 285.58 240.57 C 277.10 246.41 269.73 254.80 267.10 264.92 C 261.65 273.60 258.90 283.68 256.57 293.57 C 255.56 301.46 252.62 309.38 254.37 317.38 L 253.48 317.33 C 253.09 334.93 254.02 352.84 259.49 369.71 C 262.29 379.59 266.67 388.90 270.79 398.27 C 274.20 405.81 278.94 412.66 283.95 419.21 C 295.26 433.40 308.80 446.05 324.72 454.91 C 341.86 464.71 361.27 470.29 380.87 472.17 C 383.80 472.44 386.75 472.51 389.69 472.59 C 389.60 411.34 389.54 350.10 389.65 288.85 C 391.07 275.99 388.80 262.95 390.96 250.16 C 391.62 250.25 392.94 250.43 393.60 250.52 C 394.96 262.99 393.49 275.58 395.03 288.04 C 397.42 288.18 399.82 288.37 402.23 288.23 C 399.83 288.52 397.43 288.79 395.05 289.16 C 394.42 294.42 394.69 299.72 394.67 305.00 C 394.74 348.05 394.78 391.10 394.60 434.14 C 394.47 446.91 394.51 459.68 394.70 472.45 C 405.13 472.82 415.49 470.93 425.61 468.58 C 437.40 465.88 448.51 460.78 458.99 454.81 C 468.26 450.75 475.76 443.85 483.29 437.27 C 489.34 431.98 494.00 425.35 499.82 419.82 C 521.75 390.67 531.37 353.61 530.86 317.46 C 530.26 311.89 530.19 306.27 529.39 300.72 C 527.47 287.78 523.50 275.13 517.58 263.46 C 514.93 259.11 512.81 254.40 509.50 250.48 C 502.63 242.17 493.35 235.18 482.46 233.55 C 471.05 231.24 459.70 234.92 448.31 235.43 C 437.44 236.19 426.59 237.74 415.66 237.49 C 401.50 237.92 387.33 237.76 373.17 237.55 C 372.25 237.64 371.20 237.45 370.42 238.02 C 364.33 237.07 358.13 237.59 352.04 236.74 C 346.52 236.64 341.10 235.37 335.58 235.49 C 327.02 234.72 318.59 232.76 309.99 232.51 C 301.19 232.14 292.84 235.91 285.58 240.57 M 244.90 269.89 C 243.11 272.03 241.34 274.75 238.40 275.32 C 234.64 275.75 230.89 274.56 227.13 274.91 C 225.05 275.10 223.88 277.99 225.12 279.64 C 226.55 281.81 229.10 282.88 231.53 283.54 C 238.15 285.14 245.27 283.52 251.02 280.03 C 254.68 277.84 256.29 273.68 258.14 270.06 C 260.67 264.40 264.35 259.17 265.45 252.96 C 256.91 256.06 250.15 262.66 244.90 269.89 M 518.93 253.72 C 521.21 260.50 525.16 266.53 527.84 273.14 C 529.91 278.33 534.86 281.78 540.19 282.96 C 545.97 284.34 552.85 284.59 557.76 280.74 C 559.78 279.21 558.80 276.08 556.67 275.23 C 552.72 274.27 548.55 275.42 544.63 274.31 C 540.99 272.40 539.09 268.51 536.58 265.43 C 532.11 259.98 526.37 254.19 518.93 253.72 M 238.56 366.59 C 235.31 371.12 229.58 372.27 225.09 375.07 C 222.14 376.87 222.20 382.05 225.38 383.62 C 230.79 386.62 237.76 386.20 242.97 382.94 C 246.57 380.68 249.96 378.00 252.77 374.81 C 255.34 372.15 253.31 368.29 252.84 365.18 C 250.71 358.21 250.54 350.87 248.78 343.83 C 244.95 351.23 244.06 360.04 238.56 366.59 M 531.64 362.75 C 530.95 366.04 529.77 369.37 530.16 372.78 C 534.93 382.50 547.20 388.86 557.70 384.75 C 561.12 383.69 562.17 378.63 559.81 376.14 C 555.38 372.97 549.01 373.09 545.45 368.59 C 540.03 361.89 539.25 353.00 535.86 345.34 C 533.25 350.81 533.19 356.98 531.64 362.75 M 275.93 446.99 C 274.09 450.88 271.69 454.68 271.12 459.04 C 270.82 460.98 272.45 462.59 274.13 463.25 C 276.87 463.65 279.36 462.05 281.33 460.33 C 287.41 454.83 292.33 448.15 296.18 440.94 C 292.62 436.89 288.77 433.11 284.77 429.49 C 281.49 435.15 279.01 441.22 275.93 446.99 M 485.41 442.41 C 483.11 444.22 484.41 447.32 485.69 449.33 C 488.54 453.69 491.91 457.76 495.81 461.22 C 498.33 463.45 502.19 465.39 505.38 463.34 C 507.96 459.10 505.64 454.13 504.07 449.98 C 501.29 444.02 499.40 437.73 497.17 431.57 C 493.31 435.24 489.24 438.71 485.41 442.41 Z" />
</g>
<g id="#17242cff">
<path fill="#17242c" opacity="1.00" d=" M 348.17 114.17 C 350.63 111.69 354.45 115.10 353.88 118.04 C 353.59 124.08 353.59 130.13 354.08 136.18 C 351.94 135.97 348.78 136.81 347.81 134.21 C 346.27 130.59 345.81 126.61 345.39 122.73 C 344.99 119.65 345.46 116.11 348.17 114.17 Z" />
</g>
<g id="#16222aff">
<path fill="#16222a" opacity="1.00" d=" M 433.40 114.24 C 435.07 113.32 437.48 114.02 438.06 115.94 C 439.46 119.78 439.39 124.00 439.20 128.03 C 438.89 130.92 438.55 134.25 436.27 136.33 C 434.74 137.80 431.41 136.42 431.68 134.23 C 431.72 129.46 431.55 124.69 430.87 119.95 C 430.38 117.73 431.16 115.17 433.40 114.24 Z" />
<path fill="#16222a" opacity="1.00" d=" M 244.90 269.89 C 250.15 262.66 256.91 256.06 265.45 252.96 C 264.35 259.17 260.67 264.40 258.14 270.06 C 256.29 273.68 254.68 277.84 251.02 280.03 C 245.27 283.52 238.15 285.14 231.53 283.54 C 229.10 282.88 226.55 281.81 225.12 279.64 C 223.88 277.99 225.05 275.10 227.13 274.91 C 230.89 274.56 234.64 275.75 238.40 275.32 C 241.34 274.75 243.11 272.03 244.90 269.89 Z" />
</g>
<g id="#182932ff">
<path fill="#182932" opacity="1.00" d=" M 366.63 135.62 C 376.38 132.30 386.84 132.65 396.99 132.76 C 409.08 132.87 421.07 135.95 432.00 141.02 C 441.19 146.12 450.25 151.77 457.72 159.24 C 458.96 160.31 458.59 162.03 458.59 163.47 C 455.98 161.13 453.15 159.07 450.33 157.00 C 450.35 157.47 450.37 158.42 450.39 158.90 C 446.71 152.41 438.26 149.46 431.40 152.46 C 425.74 154.33 422.26 160.95 424.54 166.58 C 426.12 169.66 428.50 172.37 429.18 175.86 C 431.95 187.61 442.76 197.46 455.04 197.83 C 460.56 197.98 466.66 195.05 468.67 189.66 C 470.48 182.77 468.37 175.71 467.02 168.93 C 476.76 179.47 483.52 192.49 487.78 206.12 C 484.43 211.57 479.19 215.43 473.87 218.79 C 467.96 222.37 461.08 223.76 454.40 225.10 C 425.19 229.92 395.49 230.27 365.97 229.60 C 353.89 228.86 341.86 227.46 329.86 225.96 C 316.60 224.36 302.98 218.58 295.61 206.91 C 297.91 196.45 303.18 186.96 309.19 178.21 C 311.33 174.78 313.83 171.55 316.92 168.90 C 314.91 175.41 311.51 182.31 313.81 189.21 C 316.94 196.69 326.17 199.73 333.64 197.54 C 343.53 194.70 351.77 186.20 354.00 176.10 C 354.79 171.78 357.97 168.62 359.81 164.79 C 361.67 160.44 359.59 154.77 355.21 152.86 C 350.04 150.48 343.55 150.55 338.75 153.76 C 336.11 155.55 334.56 158.43 332.73 160.94 C 332.72 160.32 332.72 159.07 332.72 158.44 C 329.29 160.60 325.83 162.86 323.25 166.03 C 322.66 165.70 321.49 165.02 320.91 164.69 C 326.92 157.05 335.07 151.47 343.05 146.07 C 350.20 141.15 358.52 138.46 366.63 135.62 Z" />
</g>
<g id="#16242fff">
<path fill="#16242f" opacity="1.00" d=" M 343.34 155.23 C 347.99 153.06 355.27 156.09 354.28 161.93 C 353.43 169.32 343.18 171.38 338.30 166.70 C 336.65 164.09 336.07 159.83 338.78 157.71 C 340.11 156.59 341.69 155.77 343.34 155.23 Z" />
</g>
<g id="#162531ff">
<path fill="#162531" opacity="1.00" d=" M 434.34 155.32 C 438.27 154.32 443.37 154.42 446.23 157.72 C 448.49 161.77 446.94 167.64 442.58 169.60 C 438.10 171.49 431.72 170.10 429.59 165.38 C 427.70 161.49 430.20 156.40 434.34 155.32 Z" />
</g>
<g id="#fdfef9ff">
<path fill="#fdfef9" opacity="1.00" d=" M 450.33 157.00 C 453.15 159.07 455.98 161.13 458.59 163.47 C 463.81 168.17 465.63 175.28 466.46 181.99 C 467.14 186.78 464.59 191.86 460.21 193.99 C 455.11 196.76 449.04 194.35 444.49 191.57 C 438.22 187.88 434.40 181.28 432.23 174.53 C 436.81 175.39 441.98 175.78 446.03 173.06 C 450.49 169.92 450.71 163.83 450.39 158.90 C 450.37 158.42 450.35 157.47 450.33 157.00 Z" />
</g>
<g id="#fdfff8ff">
<path fill="#fdfff8" opacity="1.00" d=" M 323.25 166.03 C 325.83 162.86 329.29 160.60 332.72 158.44 C 332.72 159.07 332.72 160.32 332.73 160.94 C 332.30 165.29 333.56 170.08 337.46 172.52 C 341.23 175.63 346.34 174.53 350.80 174.49 C 348.77 180.79 345.34 186.93 339.76 190.75 C 335.38 193.81 329.75 196.56 324.37 194.49 C 319.74 193.30 316.68 188.71 316.50 184.06 C 316.08 177.42 319.00 171.00 323.25 166.03 Z" />
</g>
<g id="#111b1dff">
<path fill="#111b1d" opacity="1.00" d=" M 487.78 206.12 C 488.69 213.43 488.73 220.90 486.95 228.08 C 480.98 228.32 475.08 226.89 469.11 227.38 C 447.54 229.60 425.92 231.43 404.26 232.52 C 388.18 234.12 372.07 232.25 356.02 231.35 C 347.31 231.04 338.72 229.48 330.03 228.91 C 322.07 228.35 314.12 226.65 306.12 227.49 C 303.48 227.71 300.84 228.22 298.18 228.04 C 296.07 227.93 296.12 225.57 295.69 224.04 C 294.67 218.37 295.53 212.61 295.61 206.91 C 302.98 218.58 316.60 224.36 329.86 225.96 C 341.86 227.46 353.89 228.86 365.97 229.60 C 395.49 230.27 425.19 229.92 454.40 225.10 C 461.08 223.76 467.96 222.37 473.87 218.79 C 479.19 215.43 484.43 211.57 487.78 206.12 Z" />
</g>
<g id="#fd3f2eff">
<path fill="#fd3f2e" opacity="1.00" d=" M 285.58 240.57 C 292.84 235.91 301.19 232.14 309.99 232.51 C 318.59 232.76 327.02 234.72 335.58 235.49 C 338.12 239.17 340.82 242.85 344.43 245.58 C 347.94 248.27 352.14 249.78 356.23 251.34 C 353.47 257.99 351.22 265.57 353.48 272.70 C 355.35 278.02 360.30 281.56 365.27 283.77 C 372.90 287.28 381.34 288.40 389.65 288.85 C 389.54 350.10 389.60 411.34 389.69 472.59 C 386.75 472.51 383.80 472.44 380.87 472.17 C 383.58 472.09 386.28 471.89 388.99 471.73 C 389.31 459.27 389.67 446.78 388.95 434.34 C 378.69 433.76 368.45 432.31 358.55 429.49 C 334.81 423.78 314.22 408.86 298.17 390.84 C 289.67 381.96 282.84 371.61 277.32 360.68 C 270.49 346.77 267.63 331.40 265.82 316.14 C 273.43 307.73 278.88 296.52 277.33 284.94 C 276.06 277.53 273.90 269.20 267.10 264.92 C 269.73 254.80 277.10 246.41 285.58 240.57 M 304.40 261.53 C 298.91 263.42 294.96 268.03 291.44 272.43 C 285.20 280.25 281.89 290.60 283.69 300.56 C 285.03 307.13 292.20 312.13 298.82 309.89 C 313.89 304.91 324.84 288.47 322.35 272.58 C 321.06 264.57 312.25 258.63 304.40 261.53 M 311.45 335.69 C 303.03 337.52 295.96 344.12 293.61 352.41 C 290.29 364.05 297.74 376.55 307.95 382.06 C 315.98 386.52 326.35 385.91 334.09 381.11 C 340.22 377.39 343.86 370.10 343.29 362.97 C 342.63 354.50 338.34 346.56 332.22 340.78 C 326.76 335.68 318.66 333.43 311.45 335.69 Z" />
</g>
<g id="#fd402fff">
<path fill="#fd402f" opacity="1.00" d=" M 448.31 235.43 C 459.70 234.92 471.05 231.24 482.46 233.55 C 493.35 235.18 502.63 242.17 509.50 250.48 C 512.81 254.40 514.93 259.11 517.58 263.46 C 514.06 268.25 510.57 273.29 509.55 279.28 C 506.36 291.88 510.27 305.69 519.12 315.12 C 517.05 326.03 515.51 337.13 511.58 347.58 C 506.23 363.37 497.23 377.77 486.20 390.21 C 478.81 397.83 471.51 405.70 462.62 411.62 C 452.96 418.12 442.73 424.01 431.64 427.70 C 419.64 431.36 407.24 434.51 394.60 434.14 C 394.78 391.10 394.74 348.05 394.67 305.00 C 394.69 299.72 394.42 294.42 395.05 289.16 C 397.43 288.79 399.83 288.52 402.23 288.23 C 412.13 286.75 423.48 284.31 429.46 275.44 C 434.20 268.03 432.20 258.50 428.16 251.25 C 436.85 249.33 444.91 243.89 448.31 235.43 M 463.43 335.63 C 448.54 339.17 438.77 356.35 443.14 370.97 C 446.22 379.95 455.60 385.99 465.01 385.63 C 478.44 385.64 490.78 374.37 492.13 361.05 C 492.61 352.20 488.03 343.25 480.57 338.47 C 475.50 335.29 469.23 334.67 463.43 335.63 Z" />
</g>
<g id="#f7b58cff">
<path fill="#f7b58c" opacity="1.00" d=" M 335.58 235.49 C 341.10 235.37 346.52 236.64 352.04 236.74 C 358.13 237.59 364.33 237.07 370.42 238.02 C 365.30 242.00 359.66 245.67 356.23 251.34 C 352.14 249.78 347.94 248.27 344.43 245.58 C 340.82 242.85 338.12 239.17 335.58 235.49 Z" />
</g>
<g id="#fab489ff">
<path fill="#fab489" opacity="1.00" d=" M 415.66 237.49 C 426.59 237.74 437.44 236.19 448.31 235.43 C 444.91 243.89 436.85 249.33 428.16 251.25 C 424.78 246.28 419.80 242.84 415.08 239.27 C 415.23 238.83 415.52 237.93 415.66 237.49 Z" />
</g>
<g id="#16262fff">
<path fill="#16262f" opacity="1.00" d=" M 370.42 238.02 C 371.20 237.45 372.25 237.64 373.17 237.55 C 387.33 237.76 401.50 237.92 415.66 237.49 C 415.52 237.93 415.23 238.83 415.08 239.27 C 419.80 242.84 424.78 246.28 428.16 251.25 C 432.20 258.50 434.20 268.03 429.46 275.44 C 423.48 284.31 412.13 286.75 402.23 288.23 C 399.82 288.37 397.42 288.18 395.03 288.04 C 393.49 275.58 394.96 262.99 393.60 250.52 C 392.94 250.43 391.62 250.25 390.96 250.16 C 388.80 262.95 391.07 275.99 389.65 288.85 C 381.34 288.40 372.90 287.28 365.27 283.77 C 360.30 281.56 355.35 278.02 353.48 272.70 C 351.22 265.57 353.47 257.99 356.23 251.34 C 359.66 245.67 365.30 242.00 370.42 238.02 Z" />
<path fill="#16262f" opacity="1.00" d=" M 311.45 335.69 C 318.66 333.43 326.76 335.68 332.22 340.78 C 338.34 346.56 342.63 354.50 343.29 362.97 C 343.86 370.10 340.22 377.39 334.09 381.11 C 326.35 385.91 315.98 386.52 307.95 382.06 C 297.74 376.55 290.29 364.05 293.61 352.41 C 295.96 344.12 303.03 337.52 311.45 335.69 Z" />
</g>
<g id="#16232cff">
<path fill="#16232c" opacity="1.00" d=" M 518.93 253.72 C 526.37 254.19 532.11 259.98 536.58 265.43 C 539.09 268.51 540.99 272.40 544.63 274.31 C 548.55 275.42 552.72 274.27 556.67 275.23 C 558.80 276.08 559.78 279.21 557.76 280.74 C 552.85 284.59 545.97 284.34 540.19 282.96 C 534.86 281.78 529.91 278.33 527.84 273.14 C 525.16 266.53 521.21 260.50 518.93 253.72 Z" />
</g>
<g id="#fd9d76ff">
<path fill="#fd9d76" opacity="1.00" d=" M 304.40 261.53 C 312.25 258.63 321.06 264.57 322.35 272.58 C 324.84 288.47 313.89 304.91 298.82 309.89 C 292.20 312.13 285.03 307.13 283.69 300.56 C 281.89 290.60 285.20 280.25 291.44 272.43 C 294.96 268.03 298.91 263.42 304.40 261.53 Z" />
</g>
<g id="#162225ff">
<path fill="#162225" opacity="1.00" d=" M 517.58 263.46 C 523.50 275.13 527.47 287.78 529.39 300.72 C 530.19 306.27 530.26 311.89 530.86 317.46 C 526.82 317.60 522.68 317.18 519.12 315.12 C 510.27 305.69 506.36 291.88 509.55 279.28 C 510.57 273.29 514.06 268.25 517.58 263.46 Z" />
</g>
<g id="#152023ff">
<path fill="#152023" opacity="1.00" d=" M 256.57 293.57 C 258.90 283.68 261.65 273.60 267.10 264.92 C 273.90 269.20 276.06 277.53 277.33 284.94 C 278.88 296.52 273.43 307.73 265.82 316.14 C 262.15 317.46 258.24 317.81 254.37 317.38 C 252.62 309.38 255.56 301.46 256.57 293.57 Z" />
</g>
<g id="#f02419ff">
<path fill="#f02419" opacity="1.00" d=" M 519.12 315.12 C 522.68 317.18 526.82 317.60 530.86 317.46 C 531.37 353.61 521.75 390.67 499.82 419.82 C 496.28 417.40 492.43 415.10 488.02 414.92 C 478.50 414.26 469.72 419.74 463.75 426.76 C 460.09 431.07 457.31 436.31 456.63 441.98 C 456.09 446.40 457.71 450.66 458.99 454.81 C 448.51 460.78 437.40 465.88 425.61 468.58 C 415.49 470.93 405.13 472.82 394.70 472.45 C 394.51 459.68 394.47 446.91 394.60 434.14 C 407.24 434.51 419.64 431.36 431.64 427.70 C 442.73 424.01 452.96 418.12 462.62 411.62 C 471.51 405.70 478.81 397.83 486.20 390.21 C 497.23 377.77 506.23 363.37 511.58 347.58 C 515.51 337.13 517.05 326.03 519.12 315.12 Z" />
</g>
<g id="#f0241aff">
<path fill="#f0241a" opacity="1.00" d=" M 254.37 317.38 C 258.24 317.81 262.15 317.46 265.82 316.14 C 267.63 331.40 270.49 346.77 277.32 360.68 C 282.84 371.61 289.67 381.96 298.17 390.84 C 314.22 408.86 334.81 423.78 358.55 429.49 C 368.45 432.31 378.69 433.76 388.95 434.34 C 389.67 446.78 389.31 459.27 388.99 471.73 C 386.28 471.89 383.58 472.09 380.87 472.17 C 361.27 470.29 341.86 464.71 324.72 454.91 C 326.22 450.07 327.52 444.86 326.00 439.86 C 323.12 429.73 315.17 421.57 305.72 417.24 C 298.72 414.14 290.18 414.57 283.95 419.21 C 278.94 412.66 274.20 405.81 270.79 398.27 C 266.67 388.90 262.29 379.59 259.49 369.71 C 254.02 352.84 253.09 334.93 253.48 317.33 L 254.37 317.38 Z" />
</g>
<g id="#16252eff">
<path fill="#16252e" opacity="1.00" d=" M 463.43 335.63 C 469.23 334.67 475.50 335.29 480.57 338.47 C 488.03 343.25 492.61 352.20 492.13 361.05 C 490.78 374.37 478.44 385.64 465.01 385.63 C 455.60 385.99 446.22 379.95 443.14 370.97 C 438.77 356.35 448.54 339.17 463.43 335.63 Z" />
</g>
<g id="#18262fff">
<path fill="#18262f" opacity="1.00" d=" M 238.56 366.59 C 244.06 360.04 244.95 351.23 248.78 343.83 C 250.54 350.87 250.71 358.21 252.84 365.18 C 253.31 368.29 255.34 372.15 252.77 374.81 C 249.96 378.00 246.57 380.68 242.97 382.94 C 237.76 386.20 230.79 386.62 225.38 383.62 C 222.20 382.05 222.14 376.87 225.09 375.07 C 229.58 372.27 235.31 371.12 238.56 366.59 Z" />
</g>
<g id="#18242dff">
<path fill="#18242d" opacity="1.00" d=" M 531.64 362.75 C 533.19 356.98 533.25 350.81 535.86 345.34 C 539.25 353.00 540.03 361.89 545.45 368.59 C 549.01 373.09 555.38 372.97 559.81 376.14 C 562.17 378.63 561.12 383.69 557.70 384.75 C 547.20 388.86 534.93 382.50 530.16 372.78 C 529.77 369.37 530.95 366.04 531.64 362.75 Z" />
</g>
<g id="#162224ff">
<path fill="#162224" opacity="1.00" d=" M 283.95 419.21 C 290.18 414.57 298.72 414.14 305.72 417.24 C 315.17 421.57 323.12 429.73 326.00 439.86 C 327.52 444.86 326.22 450.07 324.72 454.91 C 308.80 446.05 295.26 433.40 283.95 419.21 Z" />
</g>
<g id="#172224ff">
<path fill="#172224" opacity="1.00" d=" M 463.75 426.76 C 469.72 419.74 478.50 414.26 488.02 414.92 C 492.43 415.10 496.28 417.40 499.82 419.82 C 494.00 425.35 489.34 431.98 483.29 437.27 C 475.76 443.85 468.26 450.75 458.99 454.81 C 457.71 450.66 456.09 446.40 456.63 441.98 C 457.31 436.31 460.09 431.07 463.75 426.76 Z" />
</g>
<g id="#17242dff">
<path fill="#17242d" opacity="1.00" d=" M 275.93 446.99 C 279.01 441.22 281.49 435.15 284.77 429.49 C 288.77 433.11 292.62 436.89 296.18 440.94 C 292.33 448.15 287.41 454.83 281.33 460.33 C 279.36 462.05 276.87 463.65 274.13 463.25 C 272.45 462.59 270.82 460.98 271.12 459.04 C 271.69 454.68 274.09 450.88 275.93 446.99 Z" />
<path fill="#17242d" opacity="1.00" d=" M 485.41 442.41 C 489.24 438.71 493.31 435.24 497.17 431.57 C 499.40 437.73 501.29 444.02 504.07 449.98 C 505.64 454.13 507.96 459.10 505.38 463.34 C 502.19 465.39 498.33 463.45 495.81 461.22 C 491.91 457.76 488.54 453.69 485.69 449.33 C 484.41 447.32 483.11 444.22 485.41 442.41 Z" />
</g>
</svg>
