<?xml version="1.0" encoding="UTF-8" ?>
<!DOCTYPE svg PUBLIC "-//W3C//DTD SVG 1.1//EN" "http://www.w3.org/Graphics/SVG/1.1/DTD/svg11.dtd">
<svg width="1248pt" height="832pt" viewBox="0 0 1248 832" version="1.1" xmlns="http://www.w3.org/2000/svg">
<g id="#ffffffff">
</g>
<g id="#090908ff">
<path fill="#090908" opacity="1.00" d=" M 565.81 233.94 C 566.48 229.66 570.53 225.90 575.01 226.61 C 579.31 227.18 581.95 231.88 581.37 235.96 C 580.98 240.25 580.76 244.58 581.56 248.85 C 586.07 248.66 590.25 246.87 594.58 245.80 C 605.37 242.89 616.65 242.95 627.72 243.61 C 636.44 244.21 644.67 247.27 653.17 249.00 C 653.65 244.29 652.68 239.65 652.34 234.98 C 651.50 229.93 657.23 225.70 661.89 226.87 C 665.56 228.32 667.84 232.18 668.35 235.98 C 669.10 242.48 667.49 248.97 665.12 254.98 C 677.10 263.00 688.72 271.89 697.74 283.26 C 698.71 284.58 699.78 285.89 700.30 287.48 C 699.84 288.71 699.37 289.94 698.89 291.16 C 697.20 289.51 695.35 288.04 693.53 286.56 C 694.45 291.84 696.06 297.15 695.49 302.56 C 694.85 308.77 689.09 313.63 682.98 313.98 C 675.06 314.54 667.32 310.70 661.81 305.20 C 656.42 299.80 655.07 292.01 651.48 285.53 C 649.30 281.69 647.75 276.57 650.76 272.71 C 656.13 265.88 668.29 265.23 673.86 272.17 C 676.11 275.70 675.46 280.18 675.34 284.16 C 674.32 287.18 671.74 289.70 668.58 290.35 C 664.99 291.07 661.32 291.08 657.68 291.33 C 660.34 298.60 665.34 305.17 672.29 308.80 C 676.77 311.13 682.76 312.06 687.21 309.19 C 692.45 305.78 693.25 298.83 691.65 293.23 C 690.54 286.30 685.80 280.94 681.23 275.97 C 679.94 273.32 678.68 270.51 676.21 268.76 C 668.82 263.22 661.15 257.75 652.38 254.63 C 644.20 251.70 635.71 249.40 627.00 248.96 C 615.60 247.97 603.96 248.00 592.81 250.87 C 583.51 253.45 574.09 256.46 566.27 262.32 C 561.19 266.22 554.41 269.11 552.61 275.86 C 548.51 280.36 543.71 284.53 541.36 290.30 C 539.38 295.09 539.01 300.88 541.59 305.52 C 544.57 310.48 551.24 312.22 556.55 310.43 C 565.37 307.53 571.95 299.77 574.33 290.91 C 569.57 290.60 564.14 291.10 560.29 287.71 C 556.98 285.29 556.28 280.93 556.60 277.10 C 557.82 273.59 559.70 269.88 563.34 268.39 C 568.59 266.21 574.92 266.49 579.99 269.06 C 583.26 270.68 584.35 274.60 584.16 278.00 C 584.03 281.44 581.69 284.17 580.20 287.11 C 577.57 291.77 577.33 297.54 573.81 301.74 C 569.85 306.53 564.97 310.87 559.04 313.01 C 553.63 314.75 547.34 314.56 542.40 311.57 C 537.91 308.84 535.75 303.24 536.35 298.14 C 536.86 293.99 538.24 290.02 539.20 285.97 C 537.87 287.32 536.54 288.68 535.33 290.13 C 533.88 289.67 532.44 289.22 531.01 288.77 C 541.65 275.05 554.73 262.98 570.08 254.73 C 567.75 248.06 564.91 241.16 565.81 233.94 M 569.74 232.66 C 568.21 239.22 570.39 245.93 572.12 252.24 C 574.03 251.88 576.73 252.78 577.87 250.70 C 577.85 246.12 577.25 241.55 577.74 236.97 C 577.64 235.03 578.40 232.63 576.83 231.11 C 574.79 228.91 570.41 229.47 569.74 232.66 M 658.42 230.31 C 655.72 231.36 656.05 234.65 656.11 236.99 C 656.42 241.54 656.52 246.14 657.48 250.61 C 657.87 252.63 660.41 252.54 661.89 253.34 C 664.62 247.72 665.40 241.30 664.70 235.14 C 664.46 232.16 661.65 228.80 658.42 230.31 M 567.33 271.22 C 564.19 272.43 561.17 275.36 561.11 278.89 C 561.87 283.67 567.44 286.13 571.82 284.97 C 576.28 284.13 579.24 278.77 577.54 274.58 C 575.87 270.79 570.91 269.88 567.33 271.22 M 660.28 271.27 C 657.07 271.78 654.08 274.49 654.64 277.98 C 654.71 284.23 662.30 287.31 667.56 285.44 C 671.49 283.68 674.05 278.38 671.60 274.47 C 669.43 270.51 664.16 270.43 660.28 271.27 Z" />
</g>
<g id="#18262eff">
<path fill="#18262e" opacity="1.00" d=" M 569.74 232.66 C 570.41 229.47 574.79 228.91 576.83 231.11 C 578.40 232.63 577.64 235.03 577.74 236.97 C 577.25 241.55 577.85 246.12 577.87 250.70 C 576.73 252.78 574.03 251.88 572.12 252.24 C 570.39 245.93 568.21 239.22 569.74 232.66 Z" />
</g>
<g id="#17252fff">
<path fill="#17252f" opacity="1.00" d=" M 658.42 230.31 C 661.65 228.80 664.46 232.16 664.70 235.14 C 665.40 241.30 664.62 247.72 661.89 253.34 C 660.41 252.54 657.87 252.63 657.48 250.61 C 656.52 246.14 656.42 241.54 656.11 236.99 C 656.05 234.65 655.72 231.36 658.42 230.31 Z" />
</g>
<g id="#192934ff">
<path fill="#192934" opacity="1.00" d=" M 592.81 250.87 C 603.96 248.00 615.60 247.97 627.00 248.96 C 635.71 249.40 644.20 251.70 652.38 254.63 C 661.15 257.75 668.82 263.22 676.21 268.76 C 678.68 270.51 679.94 273.32 681.23 275.97 C 679.61 275.24 677.98 274.56 676.36 273.88 C 676.17 277.32 675.98 280.77 675.34 284.16 C 675.46 280.18 676.11 275.70 673.86 272.17 C 668.29 265.23 656.13 265.88 650.76 272.71 C 647.75 276.57 649.30 281.69 651.48 285.53 C 655.07 292.01 656.42 299.80 661.81 305.20 C 667.32 310.70 675.06 314.54 682.98 313.98 C 689.09 313.63 694.85 308.77 695.49 302.56 C 696.06 297.15 694.45 291.84 693.53 286.56 C 695.35 288.04 697.20 289.51 698.89 291.16 C 705.12 301.38 712.00 311.85 713.81 323.92 C 708.92 328.69 704.09 333.74 697.93 336.86 C 691.81 340.08 684.85 340.88 678.14 341.95 C 665.90 344.01 653.46 343.92 641.14 345.12 C 631.45 346.14 621.71 345.62 612.00 345.99 C 597.30 346.16 582.62 345.08 567.99 343.80 C 556.50 342.58 544.75 341.40 534.01 336.89 C 527.36 334.16 521.80 329.18 518.47 322.80 C 521.13 310.64 528.12 300.06 535.33 290.13 C 536.54 288.68 537.87 287.32 539.20 285.97 C 538.24 290.02 536.86 293.99 536.35 298.14 C 535.75 303.24 537.91 308.84 542.40 311.57 C 547.34 314.56 553.63 314.75 559.04 313.01 C 564.97 310.87 569.85 306.53 573.81 301.74 C 577.33 297.54 577.57 291.77 580.20 287.11 C 581.69 284.17 584.03 281.44 584.16 278.00 C 584.35 274.60 583.26 270.68 579.99 269.06 C 574.92 266.49 568.59 266.21 563.34 268.39 C 559.70 269.88 557.82 273.59 556.60 277.10 C 556.63 276.37 556.69 274.91 556.72 274.19 C 555.34 274.74 553.96 275.27 552.61 275.86 C 554.41 269.11 561.19 266.22 566.27 262.32 C 574.09 256.46 583.51 253.45 592.81 250.87 Z" />
</g>
<g id="#15222cff">
<path fill="#15222c" opacity="1.00" d=" M 567.33 271.22 C 570.91 269.88 575.87 270.79 577.54 274.58 C 579.24 278.77 576.28 284.13 571.82 284.97 C 567.44 286.13 561.87 283.67 561.11 278.89 C 561.17 275.36 564.19 272.43 567.33 271.22 Z" />
</g>
<g id="#1a2731ff">
<path fill="#1a2731" opacity="1.00" d=" M 660.28 271.27 C 664.16 270.43 669.43 270.51 671.60 274.47 C 674.05 278.38 671.49 283.68 667.56 285.44 C 662.30 287.31 654.71 284.23 654.64 277.98 C 654.08 274.49 657.07 271.78 660.28 271.27 Z" />
</g>
<g id="#fdfefaff">
<path fill="#fdfefa" opacity="1.00" d=" M 552.61 275.86 C 553.96 275.27 555.34 274.74 556.72 274.19 C 556.69 274.91 556.63 276.37 556.60 277.10 C 556.28 280.93 556.98 285.29 560.29 287.71 C 564.14 291.10 569.57 290.60 574.33 290.91 C 571.95 299.77 565.37 307.53 556.55 310.43 C 551.24 312.22 544.57 310.48 541.59 305.52 C 539.01 300.88 539.38 295.09 541.36 290.30 C 543.71 284.53 548.51 280.36 552.61 275.86 Z" />
</g>
<g id="#fefefaff">
<path fill="#fefefa" opacity="1.00" d=" M 676.36 273.88 C 677.98 274.56 679.61 275.24 681.23 275.97 C 685.80 280.94 690.54 286.30 691.65 293.23 C 693.25 298.83 692.45 305.78 687.21 309.19 C 682.76 312.06 676.77 311.13 672.29 308.80 C 665.34 305.17 660.34 298.60 657.68 291.33 C 661.32 291.08 664.99 291.07 668.58 290.35 C 671.74 289.70 674.32 287.18 675.34 284.16 C 675.98 280.77 676.17 277.32 676.36 273.88 Z" />
</g>
<g id="#070605ff">
<path fill="#070605" opacity="1.00" d=" M 700.30 287.48 C 702.23 289.31 704.01 291.31 705.43 293.57 C 711.30 302.99 717.35 312.72 719.21 323.85 C 720.76 331.17 719.99 338.62 719.60 346.00 C 722.09 348.13 725.24 349.26 727.94 351.09 C 737.67 357.72 745.43 367.14 750.11 377.96 C 759.27 397.91 763.45 420.08 762.85 441.99 C 762.79 462.65 758.79 483.23 751.51 502.54 C 745.09 520.15 734.41 535.98 721.37 549.37 C 711.32 559.56 700.26 568.99 687.48 575.61 C 670.91 585.30 652.20 591.30 633.08 593.05 C 608.19 595.14 582.45 592.66 559.42 582.50 C 532.36 571.19 509.64 550.72 493.75 526.26 C 482.19 506.82 474.16 485.09 471.65 462.55 C 468.65 432.69 471.33 401.27 485.23 374.24 C 491.38 362.14 501.57 352.44 513.54 346.16 C 512.66 335.92 512.07 325.28 515.64 315.43 C 519.21 305.76 524.72 296.90 531.01 288.77 C 532.44 289.22 533.88 289.67 535.33 290.13 C 528.12 300.06 521.13 310.64 518.47 322.80 C 517.47 329.80 518.32 336.88 519.51 343.80 C 527.06 343.54 534.66 342.61 542.18 343.86 C 554.29 345.72 566.55 346.08 578.72 347.49 C 601.01 349.02 623.46 350.28 645.73 347.67 C 660.45 347.01 675.10 345.53 689.71 343.68 C 697.47 342.61 705.28 343.56 713.04 344.10 C 714.53 337.48 714.57 330.64 713.81 323.92 C 712.00 311.85 705.12 301.38 698.89 291.16 C 699.37 289.94 699.84 288.71 700.30 287.48 M 516.85 351.79 C 504.64 356.68 495.22 366.72 489.40 378.35 C 486.48 386.49 482.92 394.41 480.74 402.80 C 478.23 412.48 475.67 422.28 475.73 432.36 C 474.02 452.84 477.09 473.60 484.06 492.90 C 489.62 507.83 496.20 522.69 506.61 534.93 C 511.05 541.19 516.13 547.05 522.08 551.94 C 529.85 559.26 538.64 565.52 548.09 570.50 C 559.60 577.81 572.83 582.04 586.08 584.94 C 595.32 586.87 604.71 588.76 614.20 588.23 C 614.51 574.59 614.38 560.94 614.24 547.31 C 614.04 499.87 614.22 452.43 614.14 404.99 C 616.13 392.28 613.86 379.30 615.41 366.52 C 616.09 366.40 617.44 366.16 618.11 366.04 C 620.58 378.90 617.48 392.18 620.19 405.02 L 619.35 405.12 C 619.40 462.74 619.44 520.37 619.27 578.00 C 619.18 581.44 619.30 584.89 619.74 588.31 C 634.21 588.69 648.53 585.39 662.28 581.18 C 669.94 578.05 677.73 575.06 684.83 570.76 C 693.15 566.91 700.17 560.95 707.38 555.39 C 714.46 549.88 720.42 543.08 725.82 535.95 C 734.90 525.20 741.50 512.54 746.49 499.44 C 754.53 478.46 758.26 455.88 757.61 433.42 C 757.77 414.59 752.39 396.17 744.49 379.22 C 737.81 366.60 727.68 354.72 713.61 350.38 C 700.68 346.22 687.29 350.59 674.19 351.16 C 662.53 352.04 650.88 353.23 639.18 353.62 C 624.43 353.63 609.67 353.96 594.92 353.60 C 586.21 353.29 577.50 353.01 568.83 352.06 C 565.73 351.68 562.60 351.56 559.49 351.72 C 545.48 349.70 530.42 345.75 516.85 351.79 Z" />
</g>
<g id="#10191cff">
<path fill="#10191c" opacity="1.00" d=" M 519.51 343.80 C 518.32 336.88 517.47 329.80 518.47 322.80 C 521.80 329.18 527.36 334.16 534.01 336.89 C 544.75 341.40 556.50 342.58 567.99 343.80 C 582.62 345.08 597.30 346.16 612.00 345.99 C 621.71 345.62 631.45 346.14 641.14 345.12 C 653.46 343.92 665.90 344.01 678.14 341.95 C 684.85 340.88 691.81 340.08 697.93 336.86 C 704.09 333.74 708.92 328.69 713.81 323.92 C 714.57 330.64 714.53 337.48 713.04 344.10 C 705.28 343.56 697.47 342.61 689.71 343.68 C 675.10 345.53 660.45 347.01 645.73 347.67 C 623.46 350.28 601.01 349.02 578.72 347.49 C 566.55 346.08 554.29 345.72 542.18 343.86 C 534.66 342.61 527.06 343.54 519.51 343.80 Z" />
</g>
<g id="#fe3c2dff">
<path fill="#fe3c2d" opacity="1.00" d=" M 516.85 351.79 C 530.42 345.75 545.48 349.70 559.49 351.72 C 563.95 359.50 571.81 364.31 580.07 367.22 C 577.28 373.31 575.60 380.24 576.91 386.93 C 577.97 392.10 582.24 395.86 586.66 398.34 C 595.04 403.02 604.79 403.84 614.14 404.99 C 614.22 452.43 614.04 499.87 614.24 547.31 C 608.46 548.51 602.48 548.70 596.67 547.58 C 585.24 545.60 573.92 542.48 563.30 537.79 C 550.05 531.04 537.45 522.66 527.15 511.85 C 515.07 499.41 504.50 485.21 497.68 469.19 C 492.31 457.17 490.66 444.00 488.87 431.08 C 496.34 423.03 501.39 412.13 499.76 400.95 C 499.37 392.27 493.80 385.38 489.40 378.35 C 495.22 366.72 504.64 356.68 516.85 351.79 M 527.38 377.50 C 522.11 379.30 518.14 383.50 514.69 387.69 C 508.93 394.77 505.18 403.82 505.81 413.06 C 506.07 417.63 508.28 422.26 512.26 424.71 C 515.56 426.79 519.79 426.57 523.32 425.19 C 531.36 421.97 538.15 415.77 542.03 408.02 C 545.66 401.19 547.59 392.80 544.66 385.37 C 542.14 378.75 534.02 375.15 527.38 377.50 M 535.35 451.38 C 524.57 453.27 515.88 462.96 515.69 473.99 C 515.92 488.50 529.37 501.67 544.02 500.90 C 552.43 501.03 560.90 496.40 564.93 488.95 C 567.47 484.37 567.24 478.80 566.17 473.84 C 563.95 465.62 558.54 458.21 551.33 453.67 C 546.63 450.63 540.72 449.95 535.35 451.38 Z" />
</g>
<g id="#fd3d2dff">
<path fill="#fd3d2d" opacity="1.00" d=" M 674.19 351.16 C 687.29 350.59 700.68 346.22 713.61 350.38 C 727.68 354.72 737.81 366.60 744.49 379.22 C 741.89 382.77 739.06 386.26 737.41 390.39 C 732.33 403.20 734.86 418.86 744.20 429.10 C 744.57 437.91 742.23 446.48 740.11 454.94 C 736.09 470.21 728.71 484.49 718.83 496.79 C 711.63 507.14 702.12 515.49 692.56 523.58 C 687.02 528.02 680.61 531.15 674.44 534.59 C 658.12 544.17 639.03 548.94 620.14 548.54 C 619.02 561.77 620.00 575.05 619.74 588.31 C 619.30 584.89 619.18 581.44 619.27 578.00 C 619.44 520.37 619.40 462.74 619.35 405.12 L 620.19 405.02 C 628.27 404.23 636.40 402.95 643.98 399.92 C 650.07 397.49 655.37 392.38 657.01 385.91 C 658.51 379.42 656.37 372.73 653.22 367.07 C 657.82 365.79 662.55 364.38 666.33 361.32 C 669.80 358.69 672.06 354.88 674.19 351.16 M 690.34 451.46 C 674.91 454.04 663.79 471.55 668.50 486.60 C 671.97 496.42 682.83 502.51 693.03 501.35 C 703.94 500.56 713.62 492.55 717.12 482.30 C 720.04 472.50 716.28 461.04 707.87 455.14 C 702.88 451.45 696.35 450.62 690.34 451.46 Z" />
</g>
<g id="#f6b58fff">
<path fill="#f6b58f" opacity="1.00" d=" M 639.18 353.62 C 650.88 353.23 662.53 352.04 674.19 351.16 C 672.06 354.88 669.80 358.69 666.33 361.32 C 662.55 364.38 657.82 365.79 653.22 367.07 C 649.60 361.55 643.57 358.41 639.18 353.62 Z" />
</g>
<g id="#f6b690ff">
<path fill="#f6b690" opacity="1.00" d=" M 559.49 351.72 C 562.60 351.56 565.73 351.68 568.83 352.06 C 577.50 353.01 586.21 353.29 594.92 353.60 C 589.85 358.00 583.59 361.26 580.07 367.22 C 571.81 364.31 563.95 359.50 559.49 351.72 Z" />
</g>
<g id="#182731ff">
<path fill="#182731" opacity="1.00" d=" M 594.92 353.60 C 609.67 353.96 624.43 353.63 639.18 353.62 C 643.57 358.41 649.60 361.55 653.22 367.07 C 656.37 372.73 658.51 379.42 657.01 385.91 C 655.37 392.38 650.07 397.49 643.98 399.92 C 636.40 402.95 628.27 404.23 620.19 405.02 C 617.48 392.18 620.58 378.90 618.11 366.04 C 617.44 366.16 616.09 366.40 615.41 366.52 C 613.86 379.30 616.13 392.28 614.14 404.99 C 604.79 403.84 595.04 403.02 586.66 398.34 C 582.24 395.86 577.97 392.10 576.91 386.93 C 575.60 380.24 577.28 373.31 580.07 367.22 C 583.59 361.26 589.85 358.00 594.92 353.60 Z" />
</g>
<g id="#ff9d76ff">
<path fill="#ff9d76" opacity="1.00" d=" M 527.38 377.50 C 534.02 375.15 542.14 378.75 544.66 385.37 C 547.59 392.80 545.66 401.19 542.03 408.02 C 538.15 415.77 531.36 421.97 523.32 425.19 C 519.79 426.57 515.56 426.79 512.26 424.71 C 508.28 422.26 506.07 417.63 505.81 413.06 C 505.18 403.82 508.93 394.77 514.69 387.69 C 518.14 383.50 522.11 379.30 527.38 377.50 Z" />
</g>
<g id="#142025ff">
<path fill="#142025" opacity="1.00" d=" M 480.74 402.80 C 482.92 394.41 486.48 386.49 489.40 378.35 C 493.80 385.38 499.37 392.27 499.76 400.95 C 501.39 412.13 496.34 423.03 488.87 431.08 C 484.96 433.81 480.12 433.63 475.73 432.36 C 475.67 422.28 478.23 412.48 480.74 402.80 Z" />
</g>
<g id="#151f23ff">
<path fill="#151f23" opacity="1.00" d=" M 744.49 379.22 C 752.39 396.17 757.77 414.59 757.61 433.42 C 752.77 433.67 747.44 433.16 744.20 429.10 C 734.86 418.86 732.33 403.20 737.41 390.39 C 739.06 386.26 741.89 382.77 744.49 379.22 Z" />
</g>
<g id="#f3221bff">
<path fill="#f3221b" opacity="1.00" d=" M 744.20 429.10 C 747.44 433.16 752.77 433.67 757.61 433.42 C 758.26 455.88 754.53 478.46 746.49 499.44 C 741.50 512.54 734.90 525.20 725.82 535.95 C 723.24 533.84 720.55 531.38 717.04 531.26 C 702.31 529.06 688.39 540.01 683.38 553.32 C 681.10 559.04 682.47 565.31 684.83 570.76 C 677.73 575.06 669.94 578.05 662.28 581.18 C 648.53 585.39 634.21 588.69 619.74 588.31 C 620.00 575.05 619.02 561.77 620.14 548.54 C 639.03 548.94 658.12 544.17 674.44 534.59 C 680.61 531.15 687.02 528.02 692.56 523.58 C 702.12 515.49 711.63 507.14 718.83 496.79 C 728.71 484.49 736.09 470.21 740.11 454.94 C 742.23 446.48 744.57 437.91 744.20 429.10 Z" />
</g>
<g id="#f3231cff">
<path fill="#f3231c" opacity="1.00" d=" M 475.73 432.36 C 480.12 433.63 484.96 433.81 488.87 431.08 C 490.66 444.00 492.31 457.17 497.68 469.19 C 504.50 485.21 515.07 499.41 527.15 511.85 C 537.45 522.66 550.05 531.04 563.30 537.79 C 573.92 542.48 585.24 545.60 596.67 547.58 C 602.48 548.70 608.46 548.51 614.24 547.31 C 614.38 560.94 614.51 574.59 614.20 588.23 C 604.71 588.76 595.32 586.87 586.08 584.94 C 572.83 582.04 559.60 577.81 548.09 570.50 C 549.84 566.04 551.20 561.10 549.65 556.38 C 547.04 546.94 540.09 539.11 531.65 534.38 C 524.00 530.07 513.97 529.88 506.61 534.93 C 496.20 522.69 489.62 507.83 484.06 492.90 C 477.09 473.60 474.02 452.84 475.73 432.36 Z" />
</g>
<g id="#17262fff">
<path fill="#17262f" opacity="1.00" d=" M 535.35 451.38 C 540.72 449.95 546.63 450.63 551.33 453.67 C 558.54 458.21 563.95 465.62 566.17 473.84 C 567.24 478.80 567.47 484.37 564.93 488.95 C 560.90 496.40 552.43 501.03 544.02 500.90 C 529.37 501.67 515.92 488.50 515.69 473.99 C 515.88 462.96 524.57 453.27 535.35 451.38 Z" />
<path fill="#17262f" opacity="1.00" d=" M 690.34 451.46 C 696.35 450.62 702.88 451.45 707.87 455.14 C 716.28 461.04 720.04 472.50 717.12 482.30 C 713.62 492.55 703.94 500.56 693.03 501.35 C 682.83 502.51 671.97 496.42 668.50 486.60 C 663.79 471.55 674.91 454.04 690.34 451.46 Z" />
</g>
<g id="#162023ff">
<path fill="#162023" opacity="1.00" d=" M 506.61 534.93 C 513.97 529.88 524.00 530.07 531.65 534.38 C 540.09 539.11 547.04 546.94 549.65 556.38 C 551.20 561.10 549.84 566.04 548.09 570.50 C 538.64 565.52 529.85 559.26 522.08 551.94 C 516.13 547.05 511.05 541.19 506.61 534.93 Z" />
</g>
<g id="#162124ff">
<path fill="#162124" opacity="1.00" d=" M 683.38 553.32 C 688.39 540.01 702.31 529.06 717.04 531.26 C 720.55 531.38 723.24 533.84 725.82 535.95 C 720.42 543.08 714.46 549.88 707.38 555.39 C 700.17 560.95 693.15 566.91 684.83 570.76 C 682.47 565.31 681.10 559.04 683.38 553.32 Z" />
</g>
</svg>
